<svg width="767" height="683" viewBox="0 0 767 683" fill="none" xmlns="http://www.w3.org/2000/svg">
<path fill-rule="evenodd" clip-rule="evenodd" d="M573.16 13.6946C576.665 13.7016 579.513 10.6721 579.522 6.92806C579.531 3.18403 576.697 0.143238 573.192 0.13627C569.687 0.129302 566.839 3.15879 566.83 6.90283C566.821 10.6469 569.655 13.6877 573.16 13.6946ZM206.399 61.5718C210.488 61.5799 213.811 58.0455 213.821 53.6775C213.831 49.3094 210.525 45.7618 206.436 45.7537C202.347 45.7456 199.024 49.28 199.013 53.648C199.003 58.0161 202.31 61.5637 206.399 61.5718ZM6.34601 682.018C9.85088 682.025 12.6993 678.996 12.7081 675.252C12.7168 671.508 9.88271 668.467 6.37785 668.46C2.87298 668.453 0.0245971 671.483 0.0158065 675.227C0.00701611 678.971 2.84115 682.011 6.34601 682.018ZM317.619 309.305C317.609 313.673 314.286 317.208 310.197 317.199C306.108 317.191 302.801 313.644 302.811 309.276C302.822 304.908 306.145 301.373 310.234 301.381C314.323 301.389 317.629 304.937 317.619 309.305ZM760.284 238.619C763.789 238.626 766.637 235.597 766.646 231.853C766.655 228.109 763.821 225.068 760.316 225.061C756.811 225.054 753.962 228.083 753.954 231.827C753.945 235.571 756.779 238.612 760.284 238.619ZM414.588 436.743C414.577 441.423 411.017 445.21 406.635 445.202C402.254 445.193 398.712 441.392 398.723 436.712C398.734 432.032 402.294 428.245 406.675 428.254C411.056 428.262 414.599 432.063 414.588 436.743ZM452.624 460.542C456.421 460.55 459.506 457.268 459.516 453.212C459.525 449.156 456.455 445.861 452.658 445.854C448.861 445.846 445.775 449.128 445.766 453.184C445.756 457.24 448.827 460.535 452.624 460.542ZM527.181 378.199C527.172 381.943 524.324 384.973 520.819 384.966C517.314 384.959 514.48 381.918 514.488 378.174C514.497 374.43 517.346 371.401 520.85 371.408C524.355 371.415 527.189 374.455 527.181 378.199ZM631.108 293.019C634.905 293.027 637.991 289.745 638 285.689C638.01 281.633 634.94 278.339 631.143 278.331C627.346 278.323 624.26 281.605 624.25 285.661C624.241 289.717 627.311 293.012 631.108 293.019ZM667.837 219.833C667.827 223.889 664.741 227.171 660.945 227.163C657.148 227.156 654.077 223.862 654.087 219.806C654.096 215.75 657.182 212.468 660.979 212.475C664.776 212.483 667.846 215.777 667.837 219.833ZM425.946 139.813C430.035 139.821 433.358 136.287 433.368 131.919C433.378 127.551 430.072 124.003 425.983 123.995C421.894 123.987 418.571 127.521 418.56 131.889C418.55 136.257 421.856 139.805 425.946 139.813ZM581.367 128.41C581.358 132.466 578.272 135.748 574.475 135.74C570.678 135.733 567.608 132.438 567.617 128.382C567.627 124.326 570.713 121.044 574.51 121.052C578.307 121.059 581.377 124.354 581.367 128.41ZM573.841 155.849C573.834 158.969 571.46 161.493 568.539 161.487C565.619 161.482 563.257 158.948 563.264 155.827C563.271 152.707 565.645 150.183 568.566 150.189C571.487 150.194 573.848 152.728 573.841 155.849ZM312.541 190.523C316.63 190.531 319.953 186.997 319.964 182.629C319.974 178.261 316.667 174.713 312.578 174.705C308.489 174.697 305.166 178.232 305.156 182.6C305.146 186.968 308.452 190.515 312.541 190.523ZM652.686 352.024C652.677 356.08 649.591 359.362 645.794 359.355C641.997 359.347 638.927 356.053 638.936 351.997C638.946 347.941 642.032 344.659 645.828 344.666C649.625 344.674 652.696 347.968 652.686 352.024ZM630.554 456.487C634.351 456.494 637.436 453.212 637.446 449.156C637.455 445.1 634.385 441.806 630.588 441.798C626.791 441.791 623.706 445.073 623.696 449.129C623.686 453.185 626.757 456.479 630.554 456.487Z" fill="white"/>
</svg>
